<?xml version="1.0" encoding="utf-8"?>
<!-- Generator: Adobe Illustrator 22.0.0, SVG Export Plug-In . SVG Version: 6.00 Build 0)  -->
<svg version="1.1" id="Layer_1" xmlns="http://www.w3.org/2000/svg" xmlns:xlink="http://www.w3.org/1999/xlink" x="0px" y="0px"
	 viewBox="0 0 50 32" style="enable-background:new 0 0 50 32;" xml:space="preserve">
<style type="text/css">
	.st0{fill:#EF4023;}
	.st1{fill:#B32025;}
	.st2{fill:#FFFFFF;}
</style>
<g>
	<circle class="st0" cx="16" cy="16" r="15.5"/>
	<path class="st1" d="M16,32C7.2,32,0,24.8,0,16S7.2,0,16,0c8.8,0,16,7.2,16,16S24.8,32,16,32z M16,1C7.7,1,1,7.8,1,16s6.7,15,15,15
		c8.3,0,15-6.7,15-15S24.2,1,16,1z"/>
</g>
<path class="st2" d="M23.4,23.4c-0.6,0.6-1.6,0.6-2.2,0L16,18.3l-5.2,5.2c-0.6,0.6-1.6,0.6-2.2,0c-0.6-0.6-0.6-1.6,0-2.2l5.2-5.2
	l-5.2-5.2C8,10.2,8,9.2,8.6,8.6c0.6-0.6,1.6-0.6,2.2,0l5.2,5.2l5.2-5.2c0.6-0.6,1.6-0.6,2.2,0c0.6,0.6,0.6,1.6,0,2.2L18.2,16
	l5.2,5.2C24,21.8,24,22.8,23.4,23.4z"/>
</svg>
