<?xml version="1.0" encoding="utf-8"?>
<!-- Generator: Adobe Illustrator 22.0.0, SVG Export Plug-In . SVG Version: 6.00 Build 0)  -->
<svg version="1.1" id="Layer_1" xmlns="http://www.w3.org/2000/svg" xmlns:xlink="http://www.w3.org/1999/xlink" x="0px" y="0px"
	 viewBox="0 0 50 32" style="enable-background:new 0 0 50 32;" xml:space="preserve">
<style type="text/css">
	.st0{fill:#4C9FD8;}
	.st1{fill:#237AAD;}
	.st2{fill:#FFFFFF;}
</style>
<g>
	<circle class="st0" cx="16" cy="16" r="15.5"/>
	<path class="st1" d="M16,32C7.2,32,0,24.8,0,16S7.2,0,16,0s16,7.2,16,16S24.8,32,16,32z M16,1C7.7,1,1,7.8,1,16s6.7,15,15,15
		s15-6.7,15-15S24.2,1,16,1z"/>
</g>
<path class="st2" d="M9.5,11.6c0-0.8,0.3-1.6,0.8-2.5c0.5-0.8,1.3-1.5,2.3-2.1c1-0.6,2.2-0.8,3.5-0.8c1.2,0,2.4,0.2,3.3,0.7
	c1,0.5,1.7,1.1,2.2,1.9c0.5,0.8,0.8,1.7,0.8,2.6c0,0.7-0.1,1.4-0.4,1.9c-0.3,0.6-0.7,1-1.1,1.4c-0.4,0.4-1.1,1.1-2.2,2
	c-0.3,0.3-0.5,0.5-0.7,0.7c-0.2,0.2-0.3,0.4-0.4,0.6c-0.1,0.2-0.2,0.3-0.2,0.5c0,0.2-0.1,0.5-0.2,0.9c-0.2,0.9-0.7,1.3-1.5,1.3
	c-0.4,0-0.8-0.1-1.1-0.4c-0.3-0.3-0.5-0.7-0.5-1.3c0-0.7,0.1-1.4,0.3-1.9c0.2-0.5,0.5-1,0.9-1.4c0.4-0.4,0.9-0.9,1.5-1.4
	c0.6-0.5,1-0.8,1.2-1.1s0.5-0.5,0.6-0.8c0.2-0.3,0.3-0.6,0.3-1c0-0.7-0.3-1.3-0.8-1.7c-0.5-0.5-1.2-0.7-2-0.7
	c-0.9,0-1.6,0.2-2.1,0.7c-0.4,0.5-0.8,1.2-1.1,2.1c-0.3,1-0.8,1.5-1.7,1.5c-0.5,0-0.9-0.2-1.2-0.5C9.7,12.4,9.5,12,9.5,11.6z
	 M15.8,25.8c-0.5,0-1-0.2-1.4-0.5c-0.4-0.3-0.6-0.8-0.6-1.4c0-0.5,0.2-1,0.6-1.4c0.4-0.4,0.8-0.6,1.4-0.6c0.5,0,1,0.2,1.4,0.6
	c0.4,0.4,0.6,0.8,0.6,1.4c0,0.6-0.2,1.1-0.6,1.4S16.4,25.8,15.8,25.8z"/>
</svg>
